<svg xmlns="http://www.w3.org/2000/svg" width="300" height="50" viewBox="0 0 1768.947 356.185">
  <g id="Group_244" data-name="Group 244" transform="translate(-741.644 13153.685)">
    <text id="YOBrofile" transform="translate(746.644 -12847.5)" fill="#da813c" font-size="239" font-family="Avengero" letter-spacing="0.01em"><tspan x="0" y="0">YOBrofile</tspan></text>
    <path id="Icon_awesome-exclamation" data-name="Icon awesome-exclamation" d="M79.152,272.667c0,27.842-17.5,50.494-39.014,50.494S1.125,300.509,1.125,272.667s17.5-50.494,39.014-50.494S79.152,244.823,79.152,272.667ZM5.641,15.905l6.632,171.678c.311,8.062,5.453,14.392,11.69,14.392H56.314c6.237,0,11.378-6.33,11.69-14.392L74.636,15.905C74.965,7.253,69.641,0,62.947,0H17.331C10.636,0,5.307,7.253,5.641,15.905Z" transform="matrix(0.983, 0.174, -0.173, 0.985, 2451.792, -13151.591)" fill="#da813c" stroke="#39495d" stroke-width="10"/>
  </g>
</svg>
