<svg xmlns="http://www.w3.org/2000/svg" width="150" height="100" viewBox="0 0 1193.031 469.018">
  <g id="Group_221" data-name="Group 221" transform="translate(-2570.144 13409)">
    <path id="Icon_awesome-exclamation" data-name="Icon awesome-exclamation" d="M63.761,218.882c0,22.35-14.049,40.534-31.318,40.534S1.125,241.232,1.125,218.882s14.049-40.534,31.318-40.534S63.761,196.531,63.761,218.882ZM4.75,12.768l5.324,137.814c.25,6.472,4.377,11.553,9.384,11.553h25.97c5.007,0,9.134-5.081,9.384-11.553L60.136,12.768C60.4,5.822,56.126,0,50.752,0H14.134C8.76,0,4.482,5.822,4.75,12.768Z" transform="matrix(0.983, 0.174, -0.173, 0.985, 3717.905, -13203.231)" fill="#da813c" stroke="#39495d" stroke-width="10"/>
    <text id="_" data-name="             " transform="translate(2575.144 -13064)" fill="#2e3c4c" stroke="#2e3c4c" stroke-width="5" font-size="134" font-family="Avengero" letter-spacing="0.01em" text-decoration="underline"><tspan x="0" y="0" xml:space="preserve">             </tspan></text>
    <text id="Edit_Profile" data-name="Edit Profile" transform="translate(2679.5 -12969.5)" fill="#f8f7f7" stroke="#da813c" stroke-width="5" font-size="115" font-family="Avengero" letter-spacing="0.01em"><tspan x="0" y="0">Edit Profile</tspan></text>
    <text id="YOBro" transform="translate(2602.144 -13117)" fill="#2e3c4c" stroke="#da813c" stroke-width="15" font-size="239" font-family="Avengero" letter-spacing="0.01em"><tspan x="0" y="0">YOBro</tspan></text>
  </g>
</svg>
