<svg xmlns="http://www.w3.org/2000/svg" width="12.853" height="31.765" viewBox="0 0 12.853 31.765">
  <path id="Icon_awesome-exclamation" data-name="Icon awesome-exclamation" d="M8.725,26.084c0,2.663-1.7,4.83-3.8,4.83s-3.8-2.167-3.8-4.83,1.7-4.83,3.8-4.83S8.725,23.42,8.725,26.084ZM1.565,1.521l.646,16.423a1.3,1.3,0,0,0,1.139,1.377H6.5a1.3,1.3,0,0,0,1.139-1.377L8.285,1.521A1.341,1.341,0,0,0,7.147,0H2.7A1.341,1.341,0,0,0,1.565,1.521Z" transform="translate(4.26 -0.195) rotate(10)" fill="#da813c"/>
</svg>
