<svg xmlns="http://www.w3.org/2000/svg" width="45" height="30" viewBox="0 0 52.351 43.577">
  <path id="Icon_awesome-home" data-name="Icon awesome-home" d="M24.452,12.991,8.373,27.021V42.164a1.439,1.439,0,0,0,1.4,1.478l9.773-.027a1.439,1.439,0,0,0,1.388-1.478V33.294a1.439,1.439,0,0,1,1.4-1.478h5.582a1.439,1.439,0,0,1,1.4,1.478v8.837a1.524,1.524,0,0,0,.407,1.048,1.357,1.357,0,0,0,.988.435l9.77.029a1.439,1.439,0,0,0,1.4-1.478V27.011L25.787,12.991A1.017,1.017,0,0,0,24.452,12.991Zm25.4,9.536L42.56,16.16V3.362a1.079,1.079,0,0,0-1.047-1.109H36.63a1.079,1.079,0,0,0-1.047,1.109v6.709L27.775,3.265a4.006,4.006,0,0,0-5.32,0L.379,22.527a1.154,1.154,0,0,0-.14,1.562l2.224,2.864a1.031,1.031,0,0,0,.708.4,1.007,1.007,0,0,0,.767-.249L24.452,9.2a1.017,1.017,0,0,1,1.334,0L46.3,27.1a1.007,1.007,0,0,0,1.474-.148L50,24.091a1.154,1.154,0,0,0,.233-.815,1.129,1.129,0,0,0-.381-.749Z" transform="translate(1.113 -1.065)" fill="none" stroke="#fff" stroke-width="2"/>
</svg>
