<svg xmlns="http://www.w3.org/2000/svg" width="350" height="255" viewBox="0 0 1249.524 465.967">
  <g id="Group_195" data-name="Group 195" transform="translate(-2381 6942)">
    <path id="Icon_awesome-exclamation" data-name="Icon awesome-exclamation" d="M63.761,218.882c0,22.35-14.049,40.534-31.318,40.534S1.125,241.232,1.125,218.882s14.049-40.534,31.318-40.534S63.761,196.531,63.761,218.882ZM4.75,12.768l5.324,137.814c.25,6.472,4.377,11.553,9.384,11.553H45.428c5.007,0,9.134-5.081,9.384-11.553L60.136,12.768C60.4,5.822,56.126,0,50.752,0H14.134C8.76,0,4.482,5.822,4.75,12.768Z" transform="translate(3561.939 -6748.371) rotate(10)" fill="#da813c" stroke="#39495d" stroke-width="10"/>
    <text id="_" data-name="              " transform="translate(2386 -6623)" fill="#da813c" stroke="#da813d" stroke-width="5" font-size="134" font-family="Avengero" letter-spacing="0.01em" text-decoration="underline"><tspan x="0" y="0" xml:space="preserve">              </tspan></text>
    <text id="LETS_GO" data-name="LETS GO" transform="translate(2806 -6505)" fill="#f8f7f7" font-size="134" font-family="Avengero" letter-spacing="0.01em"><tspan x="0" y="0">LETS GO</tspan></text>
    <text id="YOBro" transform="translate(2416 -6665)" fill="#da813c" font-size="239" font-family="Avengero" letter-spacing="0.01em"><tspan x="0" y="0">YOBro</tspan></text>
  </g>
</svg>
