<svg xmlns="http://www.w3.org/2000/svg" width="200" height="100" viewBox="0 0 1132.14 463.805">
  <g id="Group_264" data-name="Group 264" transform="translate(-4221.447 11032)">
    <g id="Group_263" data-name="Group 263">
      <g id="Group_262" data-name="Group 262">
        <g id="Group_233" data-name="Group 233" transform="translate(6182.603 1739.184)">
          <g id="Group_232" data-name="Group 232" transform="translate(-23 -12)">
            <g id="Group_231" data-name="Group 231" transform="translate(-1165 199)">
              <g id="Group_230" data-name="Group 230">
                <text id="_" data-name="             " transform="translate(-699.603 -12630.998)" fill="#da813c" stroke="#da813c" stroke-width="4" font-size="134" font-family="Avengero" letter-spacing="0.01em" text-decoration="underline"><tspan x="0" y="0" xml:space="preserve">            </tspan></text>
                <text id="EVENTS" transform="translate(-576.156 -12533.379)" fill="#fff" font-size="127" font-family="Avengero" letter-spacing="0.01em"><tspan x="0" y="0">Newsfeed</tspan></text>
                <text id="YOBro" transform="translate(-768.156 -12681.184)" fill="#da813c" font-size="239" font-family="Avengero" letter-spacing="0.01em"><tspan x="0" y="0">YOBro</tspan></text>
                <path id="Icon_awesome-exclamation" data-name="Icon awesome-exclamation" d="M63.761,218.882c0,22.35-14.049,40.534-31.318,40.534S1.125,241.232,1.125,218.882s14.049-40.534,31.318-40.534S63.761,196.531,63.761,218.882ZM4.75,12.768l5.324,137.814c.25,6.472,4.377,11.553,9.384,11.553h25.97c5.007,0,9.134-5.081,9.384-11.553L60.136,12.768C60.4,5.822,56.126,0,50.752,0H14.134C8.76,0,4.482,5.822,4.75,12.768Z" transform="translate(296.394 -12761.195) rotate(11)" fill="#da813c"/>
              </g>
            </g>
          </g>
        </g>
      </g>
    </g>
  </g>
</svg>
