<svg xmlns="http://www.w3.org/2000/svg" width="14.011" height="32.923" viewBox="0 0 14.011 32.923">
  <path id="Icon_awesome-exclamation" data-name="Icon awesome-exclamation" d="M8.725,26.084c0,2.663-1.7,4.83-3.8,4.83s-3.8-2.167-3.8-4.83,1.7-4.83,3.8-4.83S8.725,23.42,8.725,26.084ZM1.565,1.521l.646,16.423a1.3,1.3,0,0,0,1.139,1.377H6.5a1.3,1.3,0,0,0,1.139-1.377L8.285,1.521A1.341,1.341,0,0,0,7.147,0H2.7A1.341,1.341,0,0,0,1.565,1.521Z" transform="translate(4.84 0.384) rotate(10)" fill="none" stroke="#da813c" stroke-width="1"/>
</svg>
