<svg id="Group_66" data-name="Group 66" xmlns="http://www.w3.org/2000/svg" width="45" height="40" viewBox="0 0 47.538 47.536">
  <path id="Path_37" data-name="Path 37" d="M40.943,7.325A23.759,23.759,0,1,0,7.314,40.88c.014.014.019.034.032.046.137.132.287.244.426.372.382.339.764.691,1.166,1.018.216.17.44.339.66.5.38.283.76.567,1.157.828.27.17.548.339.825.509.367.221.732.443,1.11.645.321.17.648.316.974.47.356.17.708.339,1.073.492s.732.272,1.1.4.689.255,1.044.363c.4.121.811.214,1.219.314.339.083.669.178,1.018.246.468.093.944.153,1.419.217.294.041.58.1.877.127.777.076,1.561.119,2.352.119s1.575-.042,2.352-.119c.3-.029.584-.087.877-.127.475-.065.95-.124,1.419-.217.339-.068.679-.17,1.018-.246.407-.1.818-.194,1.219-.314.355-.109.7-.241,1.044-.363s.74-.255,1.1-.4.716-.324,1.073-.492c.326-.154.653-.3.974-.47.378-.2.743-.424,1.11-.645.277-.17.555-.324.825-.509.4-.261.777-.545,1.157-.828.221-.17.445-.323.66-.5.4-.323.784-.665,1.166-1.018.139-.127.288-.239.426-.372.014-.012.019-.032.032-.046A23.732,23.732,0,0,0,40.943,7.325ZM37.128,39.1c-.309.272-.628.53-.95.779-.19.146-.38.29-.575.429-.307.222-.619.433-.937.635-.231.148-.467.29-.7.429q-.448.255-.91.509c-.272.139-.548.27-.827.4s-.586.266-.886.387-.619.234-.934.339c-.287.1-.574.2-.864.287-.339.1-.694.185-1.045.27-.275.064-.546.137-.825.192-.4.078-.813.132-1.225.188-.234.031-.467.073-.7.1-.652.063-1.312.1-1.979.1s-1.327-.037-1.979-.1c-.236-.024-.468-.066-.7-.1-.412-.056-.823-.11-1.225-.188-.278-.054-.55-.127-.825-.192-.351-.085-.7-.17-1.045-.27-.29-.087-.577-.188-.864-.287-.314-.109-.628-.219-.934-.339s-.594-.253-.886-.387-.555-.26-.827-.4c-.307-.16-.611-.328-.91-.509-.238-.139-.474-.282-.7-.429-.317-.2-.63-.412-.937-.635-.2-.139-.385-.283-.575-.429-.323-.25-.642-.509-.95-.779-.075-.056-.143-.127-.216-.192A13.617,13.617,0,0,1,19.439,26.19a10.063,10.063,0,0,0,8.646,0A13.617,13.617,0,0,1,37.34,38.911C37.269,38.976,37.2,39.04,37.128,39.1ZM17.844,13.619a6.789,6.789,0,1,1,9.245,9.245.036.036,0,0,0-.029.01,7.191,7.191,0,0,1-1.419.6c-.088.025-.17.059-.263.081-.17.044-.348.075-.523.105a6.875,6.875,0,0,1-1,.1h-.194a6.875,6.875,0,0,1-1-.1c-.17-.031-.35-.061-.523-.105-.09-.022-.17-.056-.263-.081a7.185,7.185,0,0,1-1.419-.6l-.031-.01A6.789,6.789,0,0,1,17.844,13.619ZM40.351,35.546h0a17.057,17.057,0,0,0-9.087-11.7,10.183,10.183,0,1,0-15,0,17.057,17.057,0,0,0-9.087,11.7,20.367,20.367,0,1,1,33.178,0Z" transform="translate(0 -0.011)" fill="#fff"/>
</svg>
