<svg xmlns="http://www.w3.org/2000/svg" width="45" height="30" viewBox="0 0 40.533 33.804">
  <path id="Icon_awesome-tags" data-name="Icon awesome-tags" d="M31.536,14.917,18.117.928A2.979,2.979,0,0,0,15.967,0H3.04A3.107,3.107,0,0,0,0,3.169V16.646a3.239,3.239,0,0,0,.89,2.241L14.31,32.875a2.953,2.953,0,0,0,4.3,0L31.536,19.4a3.265,3.265,0,0,0,0-4.482ZM7.093,10.564a3.107,3.107,0,0,1-3.04-3.169,3.107,3.107,0,0,1,3.04-3.169,3.107,3.107,0,0,1,3.04,3.169A3.107,3.107,0,0,1,7.093,10.564ZM39.643,19.4,26.715,32.875a2.953,2.953,0,0,1-4.3,0l-.023-.024L33.417,21.36a6.122,6.122,0,0,0,0-8.4L20.988,0h3.086a2.979,2.979,0,0,1,2.15.928L39.643,14.917A3.265,3.265,0,0,1,39.643,19.4Z" fill="#fbf6f2"/>
</svg>
