<svg xmlns="http://www.w3.org/2000/svg" width="250" height="100" viewBox="0 0 1204.587 472.5">
  <g id="Group_234" data-name="Group 234" transform="translate(1988.603 12771.5)">
    <g id="Group_233" data-name="Group 233">
      <g id="Group_232" data-name="Group 232">
        <g id="Group_231" data-name="Group 231" transform="translate(-1190 195)">
          <g id="Group_230" data-name="Group 230">
            <text id="_" data-name="             " transform="translate(-794.603 -12627.998)" fill="#da813c" stroke="#da813c" stroke-width="4" font-size="134" font-family="Avengero" letter-spacing="0.01em" text-decoration="underline"><tspan x="0" y="0" xml:space="preserve">             </tspan></text>
            <text id="EVENTS" transform="translate(-281 -12521)" fill="#da813c" font-size="127" font-family="Avengero" letter-spacing="0.01em"><tspan x="0" y="0">EVENTS</tspan></text>
            <text id="YOBro" transform="translate(-768.156 -12681.184)" fill="#da813c" font-size="239" font-family="Avengero" letter-spacing="0.01em"><tspan x="0" y="0">YOBro</tspan></text>
            <path id="Icon_awesome-exclamation" data-name="Icon awesome-exclamation" d="M63.761,218.882c0,22.35-14.049,40.534-31.318,40.534S1.125,241.232,1.125,218.882s14.049-40.534,31.318-40.534S63.761,196.531,63.761,218.882ZM4.75,12.768l5.324,137.814c.25,6.472,4.377,11.553,9.384,11.553H45.428c5.007,0,9.134-5.081,9.384-11.553L60.136,12.768C60.4,5.822,56.126,0,50.752,0H14.134C8.76,0,4.482,5.822,4.75,12.768Z" transform="translate(343.394 -12761.195) rotate(11)" fill="#da813c"/>
          </g>
        </g>
      </g>
    </g>
  </g>
</svg>
